/vscmnt/brussel_pixiu_data/_data_brussel/112/vsc11236/PredSimResults/SUBJ09opt3D/weighted-LRposFixed/expIG/worker_02.mot
version=1
nRows=4
nColumns=50
inDegrees=yes
endheader
                time	         pelvis_tilt	         pelvis_list	     pelvis_rotation	           pelvis_tx	           pelvis_ty	           pelvis_tz	       hip_flexion_r	     hip_adduction_r	      hip_rotation_r	        knee_angle_r	       ankle_angle_r	         mtp_angle_r	       hip_flexion_l	     hip_adduction_l	      hip_rotation_l	        knee_angle_l	       ankle_angle_l	         mtp_angle_l	    lumbar_extension	      lumbar_bending	     lumbar_rotation	 ercspn_r/activation	 intobl_r/activation	 extobl_r/activation	    abd_r/activation	    add_r/activation	hamstrings_r/activation	bifemsh_r/activation	glut_max_r/activation	iliopsoas_r/activation	rect_fem_r/activation	  vasti_r/activation	gastroc_r/activation	 soleus_r/activation	tib_ant_r/activation	 ercspn_l/activation	 intobl_l/activation	 extobl_l/activation	    abd_l/activation	    add_l/activation	hamstrings_l/activation	bifemsh_l/activation	glut_max_l/activation	iliopsoas_l/activation	rect_fem_l/activation	  vasti_l/activation	gastroc_l/activation	 soleus_l/activation	tib_ant_l/activation	
          0.00000000	         -4.08946071	         -0.90674639	          7.74004776	          0.00000000	          0.99144120	         -0.00171969	         28.37429638	         -1.19072282	         -7.94604129	         -5.22061894	          3.90147371	          0.22824421	        -13.06940672	         -2.25179348	         -5.20336807	        -10.42656106	          4.59936654	         36.26430664	        -13.49816806	         -1.71853398	         -7.77937429	          0.02889862	          0.17679054	          0.04091451	          0.01000020	          0.23677516	          0.05983992	          0.09653461	          0.03740950	          0.13180901	          0.01586472	          0.01000019	          0.01000011	          0.01000001	          0.32058443	          0.01000009	          0.01000001	          0.01000004	          0.03528719	          0.01000005	          0.01635208	          0.26553862	          0.01480757	          0.03418177	          0.01000014	          0.01000004	          0.32877266	          0.23813330	          0.01367307	
          0.01300974	         -4.14942318	         -1.01161458	          7.73967396	          0.01979137	          0.98917776	         -0.00094869	         28.33033516	         -0.99317939	         -8.22687019	         -6.86242168	          3.40670316	          0.21915368	        -13.68692971	         -2.57759656	         -5.65358633	        -11.17458826	          3.53952026	         37.90366823	        -12.97220906	         -1.25653914	         -7.94022706	          0.02374914	          0.14528792	          0.03362388	          0.01000002	          0.20184402	          0.05785826	          0.07933297	          0.11948648	          0.10832172	          0.01303776	          0.01000035	          0.01584061	          0.01561701	          0.33263289	          0.02740235	          0.01000007	          0.01000020	          0.02899930	          0.01216819	          0.03092530	          0.21822320	          0.01216899	          0.02809133	          0.01000009	          0.01000008	          0.30109579	          0.21740504	          0.01123665	
          0.02601948	         -4.18626206	         -1.15276789	          7.71123429	          0.04003315	          0.98709930	         -0.00013612	         28.14272297	         -0.79534439	         -8.44292602	         -8.49339877	          2.93140636	          0.20973867	        -14.15142858	         -2.96456255	         -6.12758967	        -12.26545040	          2.36054800	         39.52677430	        -12.41084564	         -0.74784163	         -8.06383962	          0.01951740	          0.11939880	          0.02763238	          0.09425326	          0.21425014	          0.05929353	          0.06519652	          0.12474456	          0.08901968	          0.01071455	          0.01000003	          0.01301795	          0.01283419	          0.38664098	          0.02251954	          0.01000001	          0.01000004	          0.02383186	          0.01000008	          0.02541474	          0.17933785	          0.01000059	          0.06913475	          0.01000010	          0.01000004	          0.26344109	          0.19069088	          0.01000000	
          0.03902922	         -4.20458904	         -1.29535566	          7.64856257	          0.06034590	          0.98544984	          0.00077878	         27.90639402	         -0.59340603	         -8.70244370	        -10.04095390	          2.28843250	          0.18355532	        -14.35927221	         -3.38490879	         -6.61607544	        -13.83319019	          1.04041381	         41.04068512	        -11.86173073	         -0.23853255	         -8.14921305	          0.03004318	          0.09812291	          0.02270852	          0.14591036	          0.23838287	          0.05780135	          0.05357906	          0.13795914	          0.07315710	          0.01000004	          0.04024285	          0.01069829	          0.01054726	          0.41853470	          0.04767078	          0.01000002	          0.01000002	          0.01958522	          0.01000017	          0.03363175	          0.14738140	          0.01000003	          0.07947813	          0.01000009	          0.01000005	          0.21649805	          0.15671134	          0.01000000	
